<svg width="24" height="24" viewBox="0 0 24 24" fill="none" xmlns="http://www.w3.org/2000/svg">
<g clip-path="url(#clip0_4_19)">
<path d="M20.5482 3.7049H3.06483C1.45536 3.7049 0.15094 4.94707 0.15094 6.47973V17.5791C0.15094 19.1117 1.45536 20.3539 3.06483 20.3539H20.5482C22.1577 20.3539 23.4621 19.1117 23.4621 17.5791V6.47973C23.4621 4.94707 22.1554 3.7049 20.5482 3.7049ZM3.06483 5.78602H20.5482C20.9499 5.78602 21.2767 6.09723 21.2767 6.47973V7.44051L13.6823 13.4281C12.6265 14.264 10.9806 14.2636 9.92751 13.4288L2.33636 7.44225V6.47973C2.33636 6.09819 2.66326 5.78602 3.06483 5.78602ZM20.5482 18.2728H3.06483C2.66317 18.2728 2.33636 17.9615 2.33636 17.5791V10.152L8.53294 15.0687C9.45263 15.7928 10.6136 16.1916 11.8065 16.1916C12.9994 16.1916 14.1627 15.7933 15.0833 15.0652L21.2767 10.152V17.5791C21.2767 17.9606 20.9489 18.2728 20.5482 18.2728Z" fill="#C7C7C9"/>
</g>
<defs>
<clipPath id="clip0_4_19">
<rect width="23.3111" height="22.1986" fill="white" transform="translate(0.15094 0.930054)"/>
</clipPath>
</defs>
</svg>
