<svg width="26" height="22" viewBox="0 0 26 22" fill="none" xmlns="http://www.w3.org/2000/svg">
<path d="M25.2784 3.84707C24.9895 2.54204 24.1384 1.51423 23.0578 1.16543C21.0991 0.531616 13.245 0.531616 13.245 0.531616C13.245 0.531616 5.3909 0.531616 3.43216 1.16543C2.35154 1.51428 1.50046 2.54204 1.2116 3.84707C0.686768 6.21253 0.686768 11.1478 0.686768 11.1478C0.686768 11.1478 0.686768 16.0831 1.2116 18.4486C1.50046 19.7536 2.35154 20.7386 3.43216 21.0874C5.3909 21.7212 13.245 21.7212 13.245 21.7212C13.245 21.7212 21.0991 21.7212 23.0578 21.0874C24.1384 20.7386 24.9895 19.7536 25.2784 18.4486C25.8032 16.0831 25.8032 11.1478 25.8032 11.1478C25.8032 11.1478 25.8032 6.21253 25.2784 3.84707ZM10.6762 15.6287V6.66695L17.2407 11.1479L10.6762 15.6287Z" fill="#C7C7C9"/>
</svg>
