<svg width="28" height="28" viewBox="0 0 28 28" fill="none" xmlns="http://www.w3.org/2000/svg">
<g clip-path="url(#clip0_4_30)">
<path d="M27.4643 14.0113C27.4643 6.99145 21.4917 1.30383 14.12 1.30383C6.74835 1.30383 0.775696 6.99145 0.775696 14.0113C0.775696 20.3538 5.65552 25.611 12.035 26.565V17.6847H8.64507V14.0113H12.035V11.2116C12.035 8.027 14.0258 6.26794 17.0751 6.26794C18.5355 6.26794 20.0625 6.51594 20.0625 6.51594V9.64157H18.3794C16.7221 9.64157 16.2051 10.6213 16.2051 11.6261V14.0113H19.9059L19.3141 17.6847H16.2051V26.565C22.5845 25.611 27.4643 20.3538 27.4643 14.0113Z" fill="#C7C7C9"/>
</g>
<defs>
<clipPath id="clip0_4_30">
<rect width="27.5495" height="26.2348" fill="white" transform="translate(0.345215 0.893921)"/>
</clipPath>
</defs>
</svg>
