<svg width="30" height="28" viewBox="0 0 30 28" fill="none" xmlns="http://www.w3.org/2000/svg">
<path d="M15.0062 7.26172C11.0312 7.26172 7.82492 10.2676 7.82492 13.9941C7.82492 17.7207 11.0312 20.7266 15.0062 20.7266C18.9812 20.7266 22.1874 17.7207 22.1874 13.9941C22.1874 10.2676 18.9812 7.26172 15.0062 7.26172ZM15.0062 18.3711C12.4374 18.3711 10.3374 16.4082 10.3374 13.9941C10.3374 11.5801 12.4312 9.61718 15.0062 9.61718C17.5812 9.61718 19.6749 11.5801 19.6749 13.9941C19.6749 16.4082 17.5749 18.3711 15.0062 18.3711V18.3711ZM24.1562 6.98633C24.1562 7.85937 23.4062 8.55664 22.4812 8.55664C21.5499 8.55664 20.8062 7.85351 20.8062 6.98633C20.8062 6.11914 21.5562 5.41601 22.4812 5.41601C23.4062 5.41601 24.1562 6.11914 24.1562 6.98633ZM28.9124 8.58007C28.8062 6.47656 28.2937 4.61328 26.6499 3.07812C25.0124 1.54297 23.0249 1.0625 20.7812 0.957031C18.4687 0.833984 11.5374 0.833984 9.22492 0.957031C6.98742 1.05664 4.99992 1.53711 3.35618 3.07226C1.71243 4.60742 1.20618 6.4707 1.09368 8.57422C0.962427 10.7422 0.962427 17.2402 1.09368 19.4082C1.19993 21.5117 1.71243 23.375 3.35618 24.9101C4.99992 26.4453 6.98117 26.9258 9.22492 27.0312C11.5374 27.1543 18.4687 27.1543 20.7812 27.0312C23.0249 26.9316 25.0124 26.4512 26.6499 24.9101C28.2874 23.375 28.7999 21.5117 28.9124 19.4082C29.0437 17.2402 29.0437 10.748 28.9124 8.58007V8.58007ZM25.9249 21.7344C25.4374 22.8828 24.4937 23.7676 23.2624 24.2305C21.4187 24.916 17.0437 24.7578 15.0062 24.7578C12.9687 24.7578 8.58742 24.9101 6.74992 24.2305C5.52492 23.7734 4.58117 22.8887 4.08742 21.7344C3.35618 20.0059 3.52493 15.9043 3.52493 13.9941C3.52493 12.084 3.36243 7.97656 4.08742 6.2539C4.57492 5.10547 5.51867 4.2207 6.74992 3.75781C8.59367 3.07226 12.9687 3.23047 15.0062 3.23047C17.0437 3.23047 21.4249 3.07812 23.2624 3.75781C24.4874 4.21484 25.4312 5.09961 25.9249 6.2539C26.6562 7.98242 26.4874 12.084 26.4874 13.9941C26.4874 15.9043 26.6562 20.0117 25.9249 21.7344Z" fill="#C7C7C9"/>
</svg>
