<svg width="24" height="23" viewBox="0 0 24 23" fill="none" xmlns="http://www.w3.org/2000/svg">
<g clip-path="url(#clip0_4_25)">
<path d="M23.4257 17.2982L22.3671 21.6686C22.2184 22.2864 21.6482 22.7187 20.9803 22.7187C9.49361 22.7178 0.15094 13.821 0.15094 2.88212C0.15094 2.24651 0.604824 1.70281 1.25367 1.5619L5.84305 0.553861C6.51142 0.406362 7.19437 0.73674 7.4721 1.33948L9.59013 6.04368C9.83772 6.59778 9.67072 7.24336 9.18128 7.62404L6.72996 9.49835C8.27706 12.4995 10.8395 14.9396 13.9919 16.4137L15.9989 14.0811C16.3944 13.6138 17.0775 13.452 17.6593 13.692L22.5993 15.7085C23.1935 16.0062 23.5805 16.6652 23.4257 17.2982Z" fill="#C7C7C9"/>
</g>
<defs>
<clipPath id="clip0_4_25">
<rect width="23.3111" height="22.1986" fill="white" transform="translate(0.15094 0.519165)"/>
</clipPath>
</defs>
</svg>
