<svg width="139" height="143" viewBox="0 0 139 143" fill="none" xmlns="http://www.w3.org/2000/svg">
<path d="M64.927 126.33C51.4235 126.329 38.3383 121.868 27.901 113.709C17.4638 105.551 10.3202 94.1977 7.68764 81.5853C5.05506 68.973 7.09633 55.8816 13.4636 44.5418C19.8309 33.2021 30.1303 24.3156 42.6067 19.3966C55.0832 14.4776 68.9648 13.8304 81.8861 17.5654C94.8075 21.3004 105.969 29.1864 113.469 39.8796C120.969 50.5729 124.343 63.4118 123.017 76.2087C121.691 89.0056 115.746 100.969 106.195 110.059C100.788 115.235 94.3563 119.338 87.2726 122.131C80.1889 124.924 72.5938 126.351 64.927 126.33V126.33ZM64.927 18.3887C34.6073 18.3887 9.9397 41.8791 9.9397 70.7518C9.9397 99.6245 34.6073 123.119 64.927 123.119C95.2467 123.119 119.914 99.6289 119.914 70.7561C119.914 41.8834 95.2467 18.393 64.927 18.393V18.3887Z" fill="#000000"/>
<path d="M100.851 121.757L100.279 122.119" stroke="" stroke-width="14.81" stroke-linecap="round" stroke-linejoin="bevel"/>
<path d="M96.764 108.56C96.4204 108.56 96.0853 108.459 95.8035 108.272C95.5217 108.084 95.3067 107.82 95.1872 107.513C95.0678 107.206 95.0496 106.872 95.1352 106.555C95.2207 106.238 95.4059 105.954 95.6659 105.74C101.613 100.894 106.234 94.7454 109.134 87.8224C112.033 80.8994 113.123 73.4093 112.31 65.9964C112.269 65.7793 112.276 65.5564 112.33 65.3419C112.383 65.1273 112.483 64.9255 112.622 64.7491C112.761 64.5727 112.937 64.4254 113.138 64.3164C113.339 64.2075 113.562 64.1391 113.793 64.1157C114.023 64.0923 114.256 64.1143 114.477 64.1803C114.698 64.2463 114.902 64.3549 115.077 64.4993C115.252 64.6438 115.394 64.821 115.494 65.02C115.594 65.2189 115.65 65.4354 115.659 65.6558C116.529 73.5864 115.363 81.5996 112.262 89.0063C109.161 96.413 104.217 102.992 97.8552 108.176C97.5506 108.423 97.164 108.559 96.764 108.56V108.56Z" fill="#000000"/>
<path d="M101.398 123.006C101.037 123.006 100.687 122.896 100.397 122.693C100.106 122.489 99.8925 122.203 99.7858 121.875C99.6792 121.547 99.6854 121.195 99.8037 120.871C99.922 120.547 100.146 120.268 100.443 120.073C110.427 113.556 118.219 104.428 122.881 93.7902C127.542 83.1522 128.874 71.4576 126.717 60.1152C126.677 59.9076 126.681 59.6947 126.728 59.4885C126.774 59.2823 126.863 59.0869 126.989 58.9134C127.116 58.74 127.276 58.5919 127.462 58.4776C127.649 58.3633 127.857 58.2851 128.075 58.2473C128.293 58.2096 128.516 58.2131 128.733 58.2576C128.949 58.3021 129.154 58.3869 129.337 58.5069C129.519 58.627 129.674 58.7801 129.794 58.9574C129.914 59.1347 129.996 59.3327 130.036 59.5403C132.31 71.4932 130.906 83.8172 125.994 95.0279C121.082 106.239 112.871 115.858 102.35 122.727C102.069 122.909 101.737 123.006 101.398 123.006V123.006Z" fill="#000000"/>
<path d="M102.056 131.415C101.687 131.415 101.328 131.3 101.034 131.086C100.74 130.873 100.528 130.574 100.429 130.235C100.331 129.896 100.352 129.536 100.49 129.209C100.627 128.883 100.873 128.608 101.19 128.428C113.986 121.181 124.036 110.253 129.891 97.2181C135.745 84.1832 137.103 69.7147 133.768 55.8978C133.718 55.692 133.712 55.4789 133.749 55.2708C133.786 55.0626 133.866 54.8635 133.984 54.6847C134.102 54.5059 134.256 54.351 134.437 54.2288C134.617 54.1066 134.822 54.0195 135.038 53.9725C135.254 53.9255 135.478 53.9195 135.696 53.9548C135.915 53.9902 136.124 54.0661 136.312 54.1785C136.691 54.4053 136.96 54.7662 137.06 55.1819C140.501 69.6602 139.054 84.8036 132.923 98.4522C126.793 112.101 116.293 123.557 102.922 131.187C102.66 131.337 102.361 131.415 102.056 131.415V131.415Z" fill="#000000"/>
<path d="M25.3376 44.2784C25.0232 44.2788 24.7149 44.1953 24.4476 44.0376C24.1804 43.8798 23.9648 43.654 23.8252 43.3857C23.6856 43.1174 23.6276 42.8172 23.6578 42.5192C23.6879 42.2211 23.805 41.937 23.9958 41.699C29.0642 35.3524 35.6756 30.2732 43.2615 26.8982C50.8474 23.5232 59.1807 21.9535 67.5446 22.324C67.9841 22.3535 68.3941 22.5454 68.6871 22.8588C68.98 23.1722 69.1327 23.5822 69.1124 24.0014C69.0922 24.4205 68.9007 24.8155 68.5788 25.102C68.257 25.3885 67.8302 25.5438 67.3897 25.5347C59.5716 25.1879 51.7821 26.6547 44.6911 29.809C37.6 32.9633 31.4197 37.7106 26.6817 43.6428C26.5244 43.8404 26.3212 44.0006 26.088 44.1109C25.8548 44.2212 25.598 44.2785 25.3376 44.2784V44.2784Z" fill="#000000"/>
<path d="M10.5388 39.2649C10.2357 39.2644 9.93826 39.1861 9.67785 39.0382C9.41744 38.8904 9.20363 38.6785 9.0589 38.4248C8.91417 38.1712 8.84384 37.885 8.85532 37.5965C8.8668 37.3081 8.95965 37.0278 9.12413 36.7853C16.0629 26.5935 25.9479 18.5294 37.5886 13.5642C49.2292 8.59899 62.1291 6.94446 74.7344 8.79987C75.1764 8.86517 75.573 9.09499 75.8371 9.43877C76.1011 9.78256 76.2109 10.2121 76.1423 10.633C76.0737 11.0539 75.8324 11.4316 75.4714 11.683C75.1104 11.9345 74.6593 12.039 74.2173 11.9737C62.2558 10.2134 50.015 11.7835 38.969 16.495C27.9229 21.2065 18.5428 28.8586 11.9581 38.5295C11.8048 38.7552 11.5946 38.9407 11.3467 39.0692C11.0988 39.1976 10.8211 39.2649 10.5388 39.2649V39.2649Z" fill="#000000"/>
<path d="M2.333 37.8049C2.03588 37.8045 1.74415 37.7294 1.48726 37.5872C1.23038 37.4451 1.01746 37.2408 0.869996 36.9952C0.722536 36.7496 0.645765 36.4712 0.647442 36.1883C0.649119 35.9054 0.729183 35.6279 0.879545 35.3838C8.78265 22.5897 20.7261 12.4984 35.0067 6.54906C49.2874 0.599716 65.176 -0.903925 80.4069 2.25256C80.8326 2.35435 81.1998 2.60996 81.4309 2.96523C81.662 3.32049 81.7387 3.74748 81.6448 4.15569C81.5508 4.5639 81.2937 4.92125 80.9278 5.15198C80.5619 5.38271 80.1161 5.46869 79.6848 5.3917C65.1504 2.33233 49.9713 3.74541 36.3344 9.42738C22.6974 15.1094 11.3064 24.7669 3.80239 37.0087C3.65277 37.2529 3.43809 37.4551 3.18007 37.5949C2.92206 37.7347 2.62985 37.8072 2.333 37.8049V37.8049Z" fill="#000000"/>
<path d="M10.052 65.546L6.63025 69.9304L35.9769 90.7001L39.3987 86.3158L10.052 65.546Z" fill="#000000"/>
<path d="M27.2239 96.0385L52.2264 98.8023L42.2414 76.8001L27.2239 96.0385Z" fill="#000000"/>
<path d="M69.1871 49.8734H11.5412V55.3359H69.1871V49.8734Z" fill="#000000"/>
<path d="M118.315 49.8734H85.7901V55.3359H118.315V49.8734Z" fill="#000000"/>
<path d="M83.2158 58.8721C82.3414 58.8876 81.4725 58.737 80.6598 58.429C79.8472 58.1211 79.1072 57.662 78.4831 57.0785C77.8589 56.4951 77.3631 55.7991 77.0247 55.0311C76.6862 54.2631 76.5119 53.4386 76.5119 52.6058C76.5119 51.7729 76.6862 50.9484 77.0247 50.1804C77.3631 49.4124 77.8589 48.7164 78.4831 48.133C79.1072 47.5496 79.8472 47.0904 80.6598 46.7825C81.4725 46.4745 82.3414 46.3239 83.2158 46.3394V46.3394C84.0903 46.3239 84.9592 46.4745 85.7718 46.7825C86.5844 47.0904 87.3244 47.5496 87.9486 48.133C88.5728 48.7164 89.0686 49.4124 89.407 50.1804C89.7455 50.9484 89.9198 51.7729 89.9198 52.6058C89.9198 53.4386 89.7455 54.2631 89.407 55.0311C89.0686 55.7991 88.5728 56.4951 87.9486 57.0785C87.3244 57.662 86.5844 58.1211 85.7718 58.429C84.9592 58.737 84.0903 58.8876 83.2158 58.8721V58.8721Z" fill="#000000"/>
<path d="M87.1434 68.5064H83.0177C80.8085 68.531 78.6162 68.1379 76.5677 67.3498C74.5193 66.5617 72.6554 65.3944 71.084 63.9155C69.5127 62.4365 68.2652 60.6753 67.4138 58.7339C66.5624 56.7926 66.1239 54.7096 66.1239 52.6057C66.1239 50.5018 66.5624 48.4189 67.4138 46.4775C68.2652 44.5361 69.5127 42.7749 71.084 41.296C72.6554 39.817 74.5193 38.6497 76.5677 37.8616C78.6162 37.0736 80.8085 36.6804 83.0177 36.705H87.1434V42.1676H83.0177C81.565 42.1476 80.1226 42.4029 78.7743 42.9185C77.4261 43.4341 76.1989 44.1998 75.1642 45.1711C74.1295 46.1423 73.3078 47.2997 72.747 48.5761C72.1861 49.8524 71.8973 51.2222 71.8973 52.6057C71.8973 53.9893 72.1861 55.359 72.747 56.6354C73.3078 57.9117 74.1295 59.0691 75.1642 60.0404C76.1989 61.0116 77.4261 61.7773 78.7743 62.2929C80.1226 62.8085 81.565 63.0638 83.0177 63.0438H87.1434V68.5064Z" fill="#000000"/>
<path d="M40.9995 87.5923L37.6092 91.9987L82.9038 123.602L86.2941 119.196L40.9995 87.5923Z" fill="#000000"/>
<path d="M3.17819 110.799C2.84223 110.187 2.67452 109.503 2.69067 108.812L5.42442 108.864C5.41928 109.123 5.48274 109.379 5.60895 109.608L3.17819 110.799Z" fill="#000000"/>
<path d="M8.18553 113.498H8.05796C6.7026 113.483 5.39408 113.024 4.3537 112.196L6.12609 110.222C6.68622 110.66 7.38803 110.9 8.11263 110.901C9.59798 110.927 10.8715 110.046 10.8942 108.97C10.8868 108.513 10.6903 108.078 10.3475 107.758C9.7005 107.124 8.80519 106.961 8.16503 106.933L8.28577 104.33C9.79008 104.36 11.2261 104.934 12.3021 105.935C12.724 106.341 13.0577 106.822 13.284 107.35C13.5104 107.879 13.6249 108.445 13.6212 109.016C13.5688 111.513 11.1426 113.498 8.18553 113.498Z" fill="#000000"/>
<path d="M8.25161 106.935C7.41964 106.929 6.59905 106.751 5.84605 106.414C5.09306 106.077 4.42546 105.589 3.88899 104.983C3.51052 104.546 3.22905 104.04 3.06158 103.496C2.89411 102.952 2.84409 102.381 2.91457 101.818C2.98504 101.256 3.17453 100.712 3.4716 100.221C3.76868 99.7299 4.16718 99.3012 4.64305 98.9607C5.73232 98.163 7.07471 97.7428 8.44856 97.7696C9.82242 97.7965 11.1456 98.2686 12.1996 99.1082C12.716 99.5175 13.13 100.031 13.4114 100.612C13.6928 101.193 13.8345 101.827 13.8262 102.466L11.0925 102.412C11.0899 102.155 11.0273 101.901 10.9091 101.67C10.7908 101.438 10.62 101.235 10.409 101.074C9.83823 100.637 9.13156 100.392 8.39924 100.377C7.66692 100.363 6.95015 100.579 6.36076 100.993C6.14492 101.146 5.96663 101.341 5.83835 101.566C5.71007 101.791 5.6349 102.04 5.61809 102.295C5.61893 102.683 5.7624 103.058 6.0236 103.356C6.30932 103.666 6.66167 103.913 7.05673 104.081C7.45179 104.25 7.88029 104.335 8.31313 104.332L8.25161 106.935Z" fill="#000000"/>
<path d="M56.1653 131.066L53.4316 131.014C53.4367 130.755 53.3733 130.499 53.2471 130.27L55.671 129.079C56.0093 129.691 56.1794 130.374 56.1653 131.066V131.066Z" fill="#000000"/>
<path d="M50.6021 135.539C47.5881 135.481 45.1801 133.37 45.2348 130.853C45.2544 130.216 45.4223 129.591 45.7264 129.024C46.0306 128.456 46.4634 127.96 46.9935 127.571C48.0751 126.777 49.4073 126.356 50.7728 126.376C52.1382 126.396 53.4562 126.856 54.5114 127.682L52.739 129.656C52.1787 129.218 51.477 128.978 50.7525 128.977C50.0175 128.947 49.2951 129.166 48.7135 129.595C48.4966 129.746 48.3174 129.942 48.189 130.167C48.0606 130.392 47.9861 130.641 47.9709 130.897C47.9481 131.981 49.1828 132.906 50.6659 132.934L50.6021 135.539Z" fill="#000000"/>
<path d="M50.5361 142.104H50.4062C47.3922 142.045 44.9865 139.934 45.0389 137.418L47.7727 137.47C47.7499 138.555 48.9846 139.479 50.47 139.507C51.9553 139.535 53.2288 138.652 53.2516 137.578C53.2447 137.121 53.0482 136.684 52.7048 136.363C52.0624 135.737 51.1603 135.569 50.5178 135.541L50.6477 132.938C52.272 133.012 53.6594 133.567 54.6595 134.543C55.0806 134.95 55.4134 135.432 55.6386 135.961C55.8637 136.491 55.9769 137.057 55.9717 137.628C55.917 140.117 53.4908 142.104 50.5361 142.104Z" fill="#000000"/>
<path d="M24.0117 120.909H21.2848V131.506H24.0117V120.909Z" fill="#000000"/>
<path d="M26.7523 125.484C23.8067 125.484 21.4124 123.479 21.4147 121.019C21.4147 118.6 23.7338 116.626 26.6088 116.561H26.7592C29.7071 116.561 32.1014 118.568 32.0991 121.028H29.6205C29.6205 119.869 28.3379 118.926 26.7592 118.926C25.1804 118.926 23.8956 119.865 23.8933 121.024C23.891 122.182 25.1759 123.126 26.7546 123.128L26.7523 125.484Z" fill="#000000"/>
<path d="M32.2153 131.912H29.4815V121.026C29.4734 120.768 29.4052 120.516 29.2819 120.286C29.1586 120.057 28.9832 119.857 28.7685 119.7C28.1947 119.265 27.479 119.035 26.7455 119.049C26.0128 119.035 25.298 119.265 24.7248 119.7C24.5033 119.851 24.3228 120.05 24.1982 120.281C24.0737 120.512 24.0088 120.767 24.0088 121.027C24.0088 121.286 24.0737 121.542 24.1982 121.773C24.3228 122.003 24.5033 122.202 24.7248 122.353C25.2991 122.788 26.0145 123.018 26.7478 123.004H28.322V125.608H26.7478C25.3714 125.619 24.0345 125.17 22.9706 124.338C22.4441 123.944 22.0185 123.44 21.7259 122.866C21.4333 122.292 21.2813 121.662 21.2813 121.024C21.2812 120.385 21.4333 119.755 21.7259 119.181C22.0185 118.607 22.4441 118.104 22.9706 117.709C24.0338 116.88 25.3691 116.433 26.7432 116.446V116.446C28.1196 116.434 29.4565 116.884 30.5204 117.715C31.0414 118.115 31.4629 118.619 31.7544 119.192C32.0459 119.765 32.2002 120.393 32.2062 121.03L32.2153 131.912Z" fill="#000000"/>
</svg>
