<svg id="Layer_1" data-name="Layer 1" xmlns="http://www.w3.org/2000/svg" viewBox="0 0 1000 1000"><defs>
<style>
.cls-1{fill:#231f20;}
.cls-2{fill:none;stroke:#231f20;stroke-linecap:round;stroke-linejoin:bevel;stroke-width:14.81px;}
.cls-3{fill:#231f20;stroke:none;stroke-miterlimit:10;stroke-width:11.97px;}
</style></defs><title>SAS</title><path class="cls-1" d="M491.31,716a256.2,256.2,0,1,1,181.15-75A254.5,254.5,0,0,1,491.31,716Zm0-497.56c-133.09,0-241.37,108.28-241.37,241.37S358.22,701.2,491.31,701.2,732.68,592.92,732.68,459.83,624.4,218.46,491.31,218.46Z"/><path class="cls-2" d="M649,694.92l-2.51,1.67"/><path class="cls-1" d="M631.06,634.09a7.4,7.4,0,0,1-4.82-13,212.12,212.12,0,0,0,73.06-183.2A7.41,7.41,0,1,1,714,436.32a226.94,226.94,0,0,1-78.15,196A7.42,7.42,0,0,1,631.06,634.09Z"/><path class="cls-1" d="M651.4,700.68a7.41,7.41,0,0,1-4.19-13.52A275.54,275.54,0,0,0,762.54,410.78a7.4,7.4,0,1,1,14.57-2.65A290.38,290.38,0,0,1,655.58,699.39,7.42,7.42,0,0,1,651.4,700.68Z"/><path class="cls-1" d="M654.29,739.44a7.41,7.41,0,0,1-3.8-13.77,308.56,308.56,0,0,0,143-334.33,7.41,7.41,0,0,1,14.45-3.3A324.83,324.83,0,0,1,658.09,738.39,7.39,7.39,0,0,1,654.29,739.44Z"/><path class="cls-1" d="M317.53,337.78a7.4,7.4,0,0,1-5.89-11.89A226.91,226.91,0,0,1,502.8,236.58a7.41,7.41,0,0,1-.68,14.8,212.1,212.1,0,0,0-178.69,83.47A7.4,7.4,0,0,1,317.53,337.78Z"/><path class="cls-1" d="M252.57,314.67a7.41,7.41,0,0,1-6.21-11.43,290.37,290.37,0,0,1,288-129,7.4,7.4,0,0,1-2.27,14.63A275.55,275.55,0,0,0,258.8,311.28,7.42,7.42,0,0,1,252.57,314.67Z"/><path class="cls-1" d="M216.55,307.94a7.41,7.41,0,0,1-6.38-11.16A324.86,324.86,0,0,1,559.26,144.06a7.41,7.41,0,0,1-3.17,14.47A308.57,308.57,0,0,0,223,304.27,7.4,7.4,0,0,1,216.55,307.94Z"/><rect class="cls-1" x="294.74" y="413.55" width="25.18" height="160.5" transform="translate(-272.32 445.9) rotate(-53.38)"/><polygon class="cls-1" points="325.81 576.37 435.56 589.11 391.73 487.69 325.81 576.37"/><rect class="cls-1" x="256.97" y="363.57" width="253.04" height="25.18"/><rect class="cls-1" x="582.89" y="363.57" width="142.77" height="25.18"/><path class="cls-1" d="M571.59,405.05a28.89,28.89,0,1,1,0-57.77h0a28.89,28.89,0,1,1,0,57.77Z"/><path class="cls-1" d="M588.83,449.46H570.72a73.3,73.3,0,1,1,0-146.59h18.11v25.18H570.72a48.12,48.12,0,1,0,0,96.23h18.11Z"/><rect class="cls-1" x="465.66" y="497.14" width="25.18" height="246.48" transform="translate(-304.84 639.55) rotate(-53.77)"/><path class="cls-1" d="M220.26,644.41a18.88,18.88,0,0,1-2.14-9.16l12,.24a7.1,7.1,0,0,0,.81,3.43Z"/><path class="cls-1" d="M242.24,656.85h-.56a25.82,25.82,0,0,1-16.26-6l7.78-9.1a13.79,13.79,0,0,0,8.72,3.13c6.52.12,12.11-3.94,12.21-8.9a8,8,0,0,0-2.4-5.59c-2.84-2.92-6.77-3.67-9.58-3.8l.53-12a26,26,0,0,1,17.63,7.4,20,20,0,0,1,5.79,14.2C265.87,647.7,255.22,656.85,242.24,656.85Z"/><path class="cls-1" d="M242.53,626.6a25.34,25.34,0,0,1-19.15-9,19.34,19.34,0,0,1,3.31-27.76,26.51,26.51,0,0,1,33.17.68A19.82,19.82,0,0,1,267,606l-12-.25a8,8,0,0,0-3-6.17,14.56,14.56,0,0,0-17.77-.37,8.1,8.1,0,0,0-3.26,6,7.65,7.65,0,0,0,1.78,4.89,13.24,13.24,0,0,0,10.05,4.5Z"/><path class="cls-1" d="M452.85,737.83l-12-.24a7.1,7.1,0,0,0-.81-3.43l10.64-5.49A18.88,18.88,0,0,1,452.85,737.83Z"/><path class="cls-1" d="M428.43,758.45c-13.23-.27-23.8-10-23.56-21.6a19.83,19.83,0,0,1,7.72-15.13,26.5,26.5,0,0,1,33,.51l-7.78,9.1a13.81,13.81,0,0,0-8.72-3.13,13.66,13.66,0,0,0-8.95,2.85,8,8,0,0,0-3.26,6c-.1,5,5.32,9.26,11.83,9.39Z"/><path class="cls-1" d="M428.14,788.71h-.57c-13.23-.27-23.79-10-23.56-21.6l12,.24c-.1,5,5.32,9.26,11.84,9.39s12.11-3.94,12.21-8.89a8,8,0,0,0-2.4-5.6c-2.82-2.89-6.78-3.66-9.6-3.79l.57-12c7.13.34,13.22,2.9,17.61,7.4A20,20,0,0,1,452,768.08C451.76,779.55,441.11,788.71,428.14,788.71Z"/><rect class="cls-1" x="299.74" y="691.01" width="11.97" height="48.85"/><path class="cls-3" d="M323.74,712.1c-12.93,0-23.44-9.24-23.43-20.58,0-11.15,10.18-20.25,22.8-20.55h.66c12.94,0,23.45,9.25,23.44,20.59H336.33c0-5.34-5.63-9.69-12.56-9.69s-12.57,4.33-12.58,9.67,5.63,9.69,12.56,9.7Z"/><path class="cls-1" d="M347.72,741.73h-12l0-50.18a8,8,0,0,0-3.13-6.11,13.78,13.78,0,0,0-8.88-3h0a13.79,13.79,0,0,0-8.87,3,7.52,7.52,0,0,0,0,12.23,13.84,13.84,0,0,0,8.88,3h6.91v12h-6.91a25.77,25.77,0,0,1-16.58-5.85,19.45,19.45,0,0,1,0-30.56,25.72,25.72,0,0,1,16.56-5.82h0a25.77,25.77,0,0,1,16.58,5.85,19.84,19.84,0,0,1,7.4,15.28Z"/></svg>