<svg width="141" height="135" viewBox="0 0 141 135" fill="none" xmlns="http://www.w3.org/2000/svg">
<path d="M70.3769 132.664C108.415 132.664 139.251 103.443 139.251 67.3969C139.251 31.3511 108.415 2.13025 70.3769 2.13025C32.339 2.13025 1.5031 31.3511 1.5031 67.3969C1.5031 103.443 32.339 132.664 70.3769 132.664Z" stroke="black" stroke-width="3" stroke-linecap="round" stroke-linejoin="round"/>
<path d="M19.6649 67.399C19.6649 56.8348 23.3434 46.5657 30.13 38.1844C36.9166 29.8032 46.4319 23.7783 57.2002 21.0441C67.9685 18.3098 79.3879 19.0191 89.6875 23.0619C99.987 27.1046 108.591 34.255 114.165 43.4039" stroke="black" stroke-width="3" stroke-linecap="round" stroke-linejoin="round"/>
<path d="M121.056 67.402C121.056 77.9663 117.378 88.2353 110.591 96.6165C103.804 104.998 94.2892 111.023 83.5209 113.757C72.7526 116.491 61.3331 115.782 51.0336 111.739C40.734 107.696 32.13 100.546 26.5559 91.3971" stroke="black" stroke-width="3" stroke-linecap="round" stroke-linejoin="round"/>
<path d="M19.7345 67.397H121.02" stroke="black" stroke-width="3" stroke-linecap="round" stroke-linejoin="round"/>
<path d="M83.7763 34.1125L26.5559 91.3969" stroke="black" stroke-width="3" stroke-linecap="round" stroke-linejoin="round"/>
<path d="M83.7763 100.681V34.1125" stroke="black" stroke-width="3" stroke-linecap="round"/>
</svg>
