<svg width="208" height="214" viewBox="0 0 208 214" fill="none" xmlns="http://www.w3.org/2000/svg">
<path d="M97.1568 189.053C76.9501 189.051 57.3694 182.376 41.751 170.167C26.1326 157.957 15.443 140.967 11.5036 122.093C7.56422 103.218 10.6188 83.627 20.1468 66.657C29.6749 49.687 45.0869 36.3883 63.7567 29.027C82.4265 21.6657 103.199 20.6973 122.534 26.2866C141.87 31.876 158.572 43.6774 169.795 59.68C181.018 75.6825 186.068 94.896 184.083 114.047C182.098 133.197 173.202 151.1 158.911 164.704C150.819 172.45 141.195 178.59 130.595 182.769C119.995 186.949 108.629 189.085 97.1568 189.053ZM97.1568 27.5187C51.7864 27.5187 14.8736 62.6722 14.8736 105.88C14.8736 149.088 51.7864 184.248 97.1568 184.248C142.527 184.248 179.44 149.095 179.44 105.887C179.44 62.6786 142.527 27.5252 97.1568 27.5252V27.5187Z" fill="#B6B6B6"/>
<path d="M97.1568 189.053C76.9501 189.051 57.3694 182.376 41.751 170.167C26.1326 157.957 15.443 140.967 11.5036 122.093C7.56422 103.218 10.6188 83.627 20.1468 66.657C29.6749 49.687 45.0869 36.3883 63.7567 29.027C82.4265 21.6657 103.199 20.6973 122.534 26.2866C141.87 31.876 158.572 43.6774 169.795 59.68C181.018 75.6825 186.068 94.896 184.083 114.047C182.098 133.197 173.202 151.1 158.911 164.704C150.819 172.45 141.195 178.59 130.595 182.769C119.995 186.949 108.629 189.085 97.1568 189.053ZM97.1568 27.5187C51.7864 27.5187 14.8736 62.6722 14.8736 105.88C14.8736 149.088 51.7864 184.248 97.1568 184.248C142.527 184.248 179.44 149.095 179.44 105.887C179.44 62.6786 142.527 27.5252 97.1568 27.5252V27.5187Z" fill="#B6B6B6"/>
<path d="M150.914 182.21L150.058 182.752" stroke="#" stroke-width="14.81" stroke-linecap="round" stroke-linejoin="bevel"/>
<path d="M144.798 162.461C144.284 162.46 143.782 162.309 143.361 162.029C142.939 161.749 142.617 161.353 142.439 160.894C142.26 160.435 142.233 159.934 142.361 159.46C142.489 158.986 142.766 158.56 143.155 158.24C152.054 150.989 158.97 141.787 163.308 131.427C167.647 121.066 169.278 109.857 168.061 98.7639C168 98.4389 168.01 98.1054 168.091 97.7843C168.171 97.4632 168.32 97.1612 168.528 96.8972C168.736 96.6332 168.999 96.4128 169.3 96.2498C169.602 96.0867 169.935 95.9845 170.28 95.9494C170.624 95.9143 170.973 95.9472 171.304 96.046C171.634 96.1447 171.94 96.3073 172.202 96.5235C172.464 96.7397 172.677 97.0049 172.826 97.3026C172.976 97.6004 173.06 97.9243 173.072 98.2542C174.374 110.122 172.63 122.114 167.989 133.198C163.349 144.282 155.951 154.127 146.431 161.886C145.975 162.256 145.397 162.459 144.798 162.461Z" fill="#B6B6B6"/>
<path d="M151.732 184.08C151.193 184.079 150.668 183.915 150.234 183.61C149.8 183.306 149.479 182.877 149.32 182.386C149.16 181.896 149.17 181.369 149.347 180.884C149.524 180.399 149.859 179.981 150.303 179.69C165.243 169.937 176.903 156.277 183.879 140.357C190.855 124.438 192.848 106.937 189.619 89.9625C189.56 89.652 189.566 89.3333 189.636 89.0247C189.706 88.7162 189.839 88.4237 190.027 88.1642C190.216 87.9046 190.457 87.683 190.735 87.5119C191.014 87.3409 191.325 87.2238 191.651 87.1673C191.977 87.1108 192.312 87.116 192.636 87.1827C192.96 87.2494 193.267 87.3762 193.54 87.5558C193.812 87.7355 194.045 87.9645 194.224 88.2299C194.404 88.4952 194.527 88.7916 194.586 89.1022C197.989 106.99 195.889 125.433 188.538 142.21C181.187 158.986 168.9 173.381 153.157 183.661C152.737 183.934 152.24 184.08 151.732 184.08Z" fill="#B6B6B6"/>
<path d="M152.717 196.663C152.164 196.663 151.627 196.49 151.187 196.171C150.748 195.852 150.43 195.405 150.283 194.897C150.136 194.39 150.168 193.851 150.373 193.362C150.579 192.874 150.947 192.463 151.422 192.193C170.57 181.348 185.608 164.994 194.369 145.487C203.13 125.98 205.161 104.328 200.171 83.6513C200.097 83.3433 200.087 83.0244 200.143 82.7129C200.198 82.4014 200.318 82.1033 200.494 81.8358C200.671 81.5682 200.901 81.3364 201.171 81.1535C201.442 80.9707 201.748 80.8403 202.071 80.77C202.395 80.6996 202.729 80.6907 203.056 80.7435C203.384 80.7964 203.697 80.9102 203.977 81.0782C204.545 81.4177 204.947 81.9578 205.097 82.5799C210.247 104.247 208.08 126.909 198.907 147.334C189.734 167.759 174.022 184.904 154.013 196.322C153.621 196.546 153.173 196.663 152.717 196.663Z" fill="#B6B6B6"/>
<path d="M37.9155 66.2628C37.4449 66.2633 36.9836 66.1384 36.5837 65.9023C36.1838 65.6662 35.8612 65.3283 35.6523 64.9268C35.4434 64.5253 35.3566 64.0761 35.4018 63.63C35.4469 63.184 35.6221 62.7589 35.9076 62.4027C43.4919 52.9049 53.3853 45.3039 64.7369 40.2532C76.0884 35.2025 88.5583 32.8534 101.074 33.4079C101.732 33.452 102.345 33.7392 102.784 34.2082C103.222 34.6772 103.451 35.2908 103.42 35.9181C103.39 36.5453 103.103 37.1364 102.622 37.5652C102.14 37.9939 101.501 38.2263 100.842 38.2128C89.1434 37.6937 77.4871 39.8888 66.876 44.6092C56.265 49.3296 47.0167 56.4341 39.9268 65.3116C39.6914 65.6073 39.3874 65.847 39.0384 66.0121C38.6894 66.1771 38.3051 66.2629 37.9155 66.2628Z" fill="#B6B6B6"/>
<path d="M15.7706 58.7601C15.3169 58.7592 14.8718 58.6421 14.4822 58.4208C14.0925 58.1996 13.7725 57.8825 13.556 57.5029C13.3394 57.1233 13.2341 56.6951 13.2513 56.2634C13.2685 55.8316 13.4074 55.4123 13.6536 55.0493C24.0368 39.7973 38.8287 27.7293 56.2478 20.2989C73.667 12.8684 92.9703 10.3924 111.833 13.169C112.494 13.2667 113.088 13.6107 113.483 14.1251C113.878 14.6396 114.042 15.2825 113.94 15.9123C113.837 16.5422 113.476 17.1074 112.936 17.4837C112.396 17.8599 111.721 18.0164 111.059 17.9187C93.16 15.2843 74.8428 17.634 58.3135 24.6848C41.7841 31.7357 27.7476 43.1869 17.8944 57.6595C17.665 57.9972 17.3505 58.2749 16.9795 58.4671C16.6085 58.6594 16.1929 58.7601 15.7706 58.7601Z" fill="#B6B6B6"/>
<path d="M3.49106 56.5752C3.04645 56.5745 2.6099 56.4622 2.2255 56.2494C1.8411 56.0366 1.52248 55.731 1.30182 55.3634C1.08116 54.9958 0.966281 54.5793 0.96879 54.1559C0.971299 53.7325 1.09111 53.3172 1.31611 52.952C13.1423 33.8055 31.0145 18.7039 52.3841 9.80067C73.7537 0.897458 97.5295 -1.35274 120.321 3.37095C120.958 3.52327 121.508 3.9058 121.853 4.43746C122.199 4.96911 122.314 5.60811 122.173 6.21899C122.033 6.82988 121.648 7.36464 121.101 7.70993C120.553 8.05522 119.886 8.1839 119.24 8.06868C97.4912 3.49032 74.7772 5.605 54.3708 14.1081C33.9643 22.6112 16.9188 37.0637 5.68987 55.3837C5.46597 55.7491 5.14472 56.0517 4.75863 56.2609C4.37253 56.4701 3.93527 56.5785 3.49106 56.5752Z" fill="#B6B6B6"/>
<path d="M15.0417 98.0899L9.92139 104.651L53.8358 135.733L58.9561 129.172L15.0417 98.0899Z" fill="#B6B6B6"/>
<path d="M40.7378 143.722L78.1517 147.858L63.21 114.932L40.7378 143.722Z" fill="#B6B6B6"/>
<path d="M103.532 74.6356H17.2705V82.8104H103.532V74.6356Z" fill="#B6B6B6"/>
<path d="M177.047 74.6356H128.376V82.8104H177.047V74.6356Z" fill="#B6B6B6"/>
<path d="M124.524 88.1022C123.216 88.1254 121.916 87.9 120.7 87.4392C119.484 86.9783 118.376 86.2913 117.442 85.4182C116.508 84.5451 115.766 83.5035 115.26 82.3542C114.754 81.2049 114.493 79.971 114.493 78.7246C114.493 77.4783 114.754 76.2444 115.26 75.0951C115.766 73.9458 116.508 72.9042 117.442 72.0311C118.376 71.158 119.484 70.471 120.7 70.0101C121.916 69.5493 123.216 69.3238 124.524 69.347C125.833 69.3238 127.133 69.5493 128.349 70.0101C129.565 70.471 130.673 71.158 131.607 72.0311C132.541 72.9042 133.283 73.9458 133.789 75.0951C134.295 76.2444 134.556 77.4783 134.556 78.7246C134.556 79.971 134.295 81.2049 133.789 82.3542C133.283 83.5035 132.541 84.5451 131.607 85.4182C130.673 86.2913 129.565 86.9783 128.349 87.4392C127.133 87.9 125.833 88.1254 124.524 88.1022Z" fill="#B6B6B6"/>
<path d="M130.402 102.52H124.228C120.922 102.557 117.642 101.969 114.576 100.789C111.511 99.6099 108.722 97.863 106.371 95.6497C104.019 93.4364 102.152 90.8008 100.878 87.8956C99.6043 84.9903 98.9482 81.8731 98.9482 78.7246C98.9482 75.5762 99.6043 72.459 100.878 69.5537C102.152 66.6485 104.019 64.0128 106.371 61.7996C108.722 59.5863 111.511 57.8394 114.576 56.6601C117.642 55.4807 120.922 54.8924 124.228 54.9292H130.402V63.1039H124.228C122.054 63.0741 119.896 63.4561 117.878 64.2277C115.861 64.9993 114.024 66.1452 112.476 67.5987C110.928 69.0521 109.698 70.7842 108.859 72.6943C108.02 74.6043 107.588 76.6541 107.588 78.7246C107.588 80.7951 108.02 82.845 108.859 84.755C109.698 86.6651 110.928 88.3972 112.476 89.8506C114.024 91.3041 115.861 92.45 117.878 93.2216C119.896 93.9932 122.054 94.3752 124.228 94.3453H130.402V102.52Z" fill="#B6B6B6"/>
<path d="M61.3516 131.082L56.2783 137.676L124.057 184.971L129.131 178.377L61.3516 131.082Z" fill="#B6B6B6"/>
<path d="M4.75602 165.811C4.25329 164.895 4.00232 163.872 4.0265 162.838L8.11729 162.915C8.10959 163.303 8.20456 163.686 8.39341 164.029L4.75602 165.811Z" fill="#B6B6B6"/>
<path d="M12.2491 169.85H12.0582C10.03 169.828 8.07197 169.14 6.51514 167.902L9.16735 164.948C10.0055 165.603 11.0557 165.962 12.14 165.964C14.3627 166.003 16.2683 164.685 16.3024 163.075C16.2913 162.391 15.9973 161.738 15.4843 161.26C14.5161 160.312 13.1764 160.068 12.2184 160.026L12.3991 156.13C14.6502 156.175 16.799 157.034 18.4092 158.533C19.0405 159.14 19.5398 159.859 19.8785 160.65C20.2172 161.441 20.3887 162.288 20.383 163.143C20.3046 166.879 16.674 169.85 12.2491 169.85Z" fill="#B6B6B6"/>
<path d="M12.3477 160.029C11.1027 160.019 9.87478 159.753 8.748 159.248C7.62122 158.744 6.62222 158.014 5.81944 157.107C5.2531 156.453 4.83192 155.696 4.58131 154.882C4.3307 154.068 4.25586 153.214 4.36132 152.372C4.46677 151.529 4.75032 150.716 5.19487 149.981C5.63941 149.246 6.23573 148.605 6.94782 148.095C8.57781 146.901 10.5866 146.272 12.6424 146.313C14.6983 146.353 16.6783 147.059 18.2555 148.316C19.0283 148.928 19.6478 149.697 20.0689 150.567C20.49 151.436 20.702 152.384 20.6895 153.341L16.5987 153.26C16.5949 152.875 16.5012 152.495 16.3243 152.149C16.1474 151.803 15.8918 151.498 15.576 151.257C14.7219 150.603 13.6644 150.236 12.5686 150.215C11.4728 150.193 10.4002 150.517 9.51821 151.137C9.19522 151.365 8.92843 151.658 8.73647 151.994C8.54452 152.33 8.43203 152.703 8.40688 153.085C8.40813 153.665 8.62282 154.227 9.01368 154.672C9.44123 155.136 9.9685 155.506 10.5597 155.758C11.1508 156.01 11.792 156.138 12.4397 156.133L12.3477 160.029Z" fill="#B6B6B6"/>
<path d="M84.0461 196.14L79.9553 196.063C79.963 195.675 79.8681 195.292 79.6792 194.949L83.3064 193.167C83.8126 194.083 84.0671 195.106 84.0461 196.14Z" fill="#B6B6B6"/>
<path d="M75.721 202.835C71.2109 202.747 67.6075 199.588 67.6894 195.822C67.7186 194.869 67.9699 193.934 68.425 193.084C68.8802 192.235 69.5278 191.492 70.3211 190.91C71.9395 189.722 73.9331 189.092 75.9764 189.122C78.0196 189.152 79.9918 189.841 81.5709 191.076L78.9187 194.03C78.0802 193.376 77.0302 193.017 75.946 193.014C74.8461 192.969 73.7651 193.297 72.8949 193.939C72.5702 194.166 72.3022 194.458 72.1101 194.795C71.9179 195.131 71.8064 195.505 71.7836 195.887C71.7495 197.51 73.5972 198.894 75.8164 198.936L75.721 202.835Z" fill="#B6B6B6"/>
<path d="M75.6222 212.659H75.4279C70.9178 212.571 67.3179 209.412 67.3963 205.646L71.4871 205.724C71.453 207.347 73.3007 208.731 75.5233 208.773C77.746 208.815 79.6516 207.494 79.6857 205.887C79.6755 205.201 79.3814 204.548 78.8676 204.068C77.9062 203.13 76.5563 202.88 75.5949 202.838L75.7892 198.942C78.2199 199.053 80.2959 199.884 81.7925 201.345C82.4227 201.953 82.9206 202.674 83.2576 203.466C83.5946 204.259 83.764 205.106 83.7561 205.961C83.6743 209.685 80.0437 212.659 75.6222 212.659Z" fill="#B6B6B6"/>
<path d="M35.9312 180.94H31.8506V196.799H35.9312V180.94Z" fill="#B6B6B6"/>
<path d="M40.0322 187.787C35.6244 187.787 32.0415 184.787 32.0449 181.106C32.0449 177.486 35.5153 174.532 39.8174 174.434H40.0424C44.4537 174.434 48.0365 177.437 48.0331 181.119H44.3241C44.3241 179.385 42.4049 177.973 40.0424 177.973C37.68 177.973 35.7573 179.379 35.7539 181.112C35.7505 182.846 37.6732 184.258 40.0356 184.261L40.0322 187.787Z" fill="#B6B6B6"/>
<path d="M48.2069 197.407H44.1161V181.115C44.104 180.73 44.002 180.352 43.8174 180.009C43.6329 179.666 43.3704 179.366 43.0491 179.132C42.1906 178.48 41.1195 178.136 40.0219 178.158C38.9256 178.137 37.856 178.481 36.9982 179.132C36.6667 179.358 36.3966 179.656 36.2102 180.001C36.0239 180.346 35.9267 180.729 35.9267 181.117C35.9267 181.505 36.0239 181.888 36.2102 182.233C36.3966 182.578 36.6667 182.876 36.9982 183.102C37.8576 183.752 38.928 184.097 40.0253 184.076H42.381V187.972H40.0253C37.9658 187.99 35.9652 187.317 34.3732 186.073C33.5854 185.482 32.9485 184.729 32.5106 183.869C32.0727 183.01 31.8452 182.067 31.8452 181.112C31.8452 180.157 32.0727 179.214 32.5106 178.355C32.9485 177.496 33.5854 176.742 34.3732 176.152C35.9641 174.911 37.9623 174.242 40.0185 174.262C42.0781 174.245 44.0786 174.917 45.6706 176.161C46.4503 176.759 47.081 177.514 47.5173 178.372C47.9535 179.229 48.1844 180.169 48.1933 181.122L48.2069 197.407Z" fill="#B6B6B6"/>
</svg>
