<svg width="27" height="27" viewBox="0 0 27 27" fill="none" xmlns="http://www.w3.org/2000/svg">
<path d="M5.92949 26.1067H0.437557V8.67658H5.92949V26.1067ZM3.18057 6.29896C1.42443 6.29896 0 4.86539 0 3.13462C1.25697e-08 2.30327 0.335094 1.50596 0.931566 0.918108C1.52804 0.330253 2.33703 0 3.18057 0C4.02411 0 4.83309 0.330253 5.42957 0.918108C6.02604 1.50596 6.36113 2.30327 6.36113 3.13462C6.36113 4.86539 4.93612 6.29896 3.18057 6.29896ZM26.484 26.1067H21.0039V17.6218C21.0039 15.5997 20.9625 13.0064 18.1486 13.0064C15.2932 13.0064 14.8557 15.2034 14.8557 17.4761V26.1067H9.36963V8.67658H14.6369V11.0542H14.7137C15.4469 9.68474 17.238 8.23952 19.91 8.23952C25.4682 8.23952 26.4899 11.8467 26.4899 16.5321V26.1067H26.484Z" fill="#C7C7C9"/>
</svg>
