<svg width="230" height="218" viewBox="0 0 230 218" fill="none" xmlns="http://www.w3.org/2000/svg">
<path d="M114.914 216C177.274 216 227.827 168.094 227.827 109C227.827 49.9056 177.274 2 114.914 2C52.5532 2 2 49.9056 2 109C2 168.094 52.5532 216 114.914 216Z" stroke="white" stroke-width="3" stroke-linecap="round" stroke-linejoin="round"/>
<path d="M31.7749 109.004C31.7749 91.6842 37.8056 74.8487 48.9317 61.1083C60.0578 47.3679 75.6575 37.4905 93.3113 33.0079C110.965 28.5253 129.687 29.6881 146.572 36.316C163.457 42.9438 177.563 54.6663 186.701 69.6653" stroke="white" stroke-width="3" stroke-linecap="round" stroke-linejoin="round"/>
<path d="M197.999 109.008C197.999 126.328 191.968 143.163 180.842 156.903C169.716 170.644 154.116 180.521 136.462 185.004C118.808 189.486 100.087 188.324 83.2017 181.696C66.3163 175.068 52.2106 163.346 43.0723 148.347" stroke="white" stroke-width="3" stroke-linecap="round" stroke-linejoin="round"/>
<path d="M31.8892 109H197.939" stroke="white" stroke-width="3" stroke-linecap="round" stroke-linejoin="round"/>
<path d="M136.881 54.4326L43.0723 148.346" stroke="white" stroke-width="3" stroke-linecap="round" stroke-linejoin="round"/>
<path d="M136.881 163.567V54.4326" stroke="white" stroke-width="3" stroke-linecap="round"/>
</svg>
