<svg width="28" height="29" viewBox="0 0 28 29" fill="none" xmlns="http://www.w3.org/2000/svg">
<g clip-path="url(#clip0_4_32)">
<path d="M13.7809 7.78058C9.86983 7.78058 6.71517 10.6114 6.71517 14.1209C6.71517 17.6304 9.86983 20.4612 13.7809 20.4612C17.6919 20.4612 20.8466 17.6304 20.8466 14.1209C20.8466 10.6114 17.6919 7.78058 13.7809 7.78058ZM13.7809 18.2429C11.2535 18.2429 9.18724 16.3944 9.18724 14.1209C9.18724 11.8474 11.2473 9.99887 13.7809 9.99887C16.3145 9.99887 18.3745 11.8474 18.3745 14.1209C18.3745 16.3944 16.3083 18.2429 13.7809 18.2429ZM22.7837 7.52123C22.7837 8.34343 22.0457 9.00008 21.1356 9.00008C20.2194 9.00008 19.4876 8.33791 19.4876 7.52123C19.4876 6.70454 20.2255 6.04237 21.1356 6.04237C22.0457 6.04237 22.7837 6.70454 22.7837 7.52123ZM27.4634 9.02216C27.3589 7.04115 26.8546 5.28639 25.2373 3.84064C23.6261 2.39489 21.6706 1.9424 19.463 1.84308C17.1877 1.72719 10.3679 1.72719 8.09264 1.84308C5.89114 1.93688 3.93562 2.38937 2.31831 3.83512C0.70101 5.28087 0.202905 7.03563 0.0922151 9.01664C-0.0369233 11.0583 -0.0369233 17.1779 0.0922151 19.2197C0.196756 21.2007 0.70101 22.9554 2.31831 24.4012C3.93562 25.8469 5.88499 26.2994 8.09264 26.3987C10.3679 26.5146 17.1877 26.5146 19.463 26.3987C21.6706 26.3049 23.6261 25.8524 25.2373 24.4012C26.8485 22.9554 27.3527 21.2007 27.4634 19.2197C27.5925 17.1779 27.5925 11.0639 27.4634 9.02216ZM24.524 21.4103C24.0443 22.4919 23.1157 23.3251 21.9043 23.7611C20.0902 24.4067 15.7856 24.2577 13.7809 24.2577C11.7762 24.2577 7.4654 24.4012 5.65746 23.7611C4.45217 23.3307 3.52361 22.4974 3.0378 21.4103C2.31831 19.7825 2.48435 15.9198 2.48435 14.1209C2.48435 12.322 2.32446 8.45379 3.0378 6.83146C3.51746 5.74991 4.44602 4.91667 5.65746 4.48074C7.47155 3.83512 11.7762 3.98411 13.7809 3.98411C15.7856 3.98411 20.0964 3.84064 21.9043 4.48074C23.1096 4.91115 24.0382 5.74439 24.524 6.83146C25.2434 8.45931 25.0774 12.322 25.0774 14.1209C25.0774 15.9198 25.2434 19.788 24.524 21.4103Z" fill="#C7C7C9"/>
</g>
<defs>
<clipPath id="clip0_4_32">
<rect width="27.5495" height="28.2528" fill="white"/>
</clipPath>
</defs>
</svg>
