<svg width="27" height="29" viewBox="0 0 27 29" fill="none" xmlns="http://www.w3.org/2000/svg">
<path d="M25.2784 6.84707C24.9895 5.54204 24.1384 4.51423 23.0578 4.16543C21.0991 3.53162 13.245 3.53162 13.245 3.53162C13.245 3.53162 5.3909 3.53162 3.43216 4.16543C2.35154 4.51428 1.50046 5.54204 1.2116 6.84707C0.686768 9.21253 0.686768 14.1478 0.686768 14.1478C0.686768 14.1478 0.686768 19.0831 1.2116 21.4486C1.50046 22.7536 2.35154 23.7386 3.43216 24.0874C5.3909 24.7212 13.245 24.7212 13.245 24.7212C13.245 24.7212 21.0991 24.7212 23.0578 24.0874C24.1384 23.7386 24.9895 22.7536 25.2784 21.4486C25.8032 19.0831 25.8032 14.1478 25.8032 14.1478C25.8032 14.1478 25.8032 9.21253 25.2784 6.84707ZM10.6762 18.6287V9.66695L17.2407 14.1479L10.6762 18.6287Z" fill="#C7C7C9"/>
</svg>
